<?xml version="1.0" encoding="iso-8859-1"?>
<!-- Generator: Adobe Illustrator 19.0.0, SVG Export Plug-In . SVG Version: 6.00 Build 0)  -->
<svg version="1.1" id="Capa_1" xmlns="http://www.w3.org/2000/svg" xmlns:xlink="http://www.w3.org/1999/xlink" x="0px" y="0px"
	 viewBox="0 0 480 480" style="enable-background:new 0 0 480 480;" xml:space="preserve">
<g>
	<path style="fill:#FFE477;" d="M168,288h64v32h-64V288z"/>
	<path style="fill:#FFE477;" d="M80,288h64v32H80V288z"/>
	<path style="fill:#FFE477;" d="M168,256h64v32h-64V256z"/>
	<path style="fill:#FFE477;" d="M256,288h64v32h-64V288z"/>
	<path style="fill:#FFE477;" d="M256,256h64v32h-64V256z"/>
	<path style="fill:#FFE477;" d="M256,224h64v32h-64V224z"/>
	<path style="fill:#FFE477;" d="M344,224h64v32h-64V224z"/>
	<path style="fill:#FFE477;" d="M344,184h64v32h-64V184z"/>
	<path style="fill:#FFE477;" d="M344,288h64v32h-64V288z"/>
	<path style="fill:#FFE477;" d="M344,256h64v32h-64V256z"/>
</g>
<g>
	<path style="fill:#444444;" d="M152,280H72v48h80V280z M136,312H88v-16h48V312z"/>
	<path style="fill:#444444;" d="M160,328h80v-80h-80V328z M224,312h-48v-16h48V312z M176,264h48v16h-48V264z"/>
	<path style="fill:#444444;" d="M248,328h80V216h-80V328z M312,312h-48v-16h48V312z M312,280h-48v-16h48V280z M264,232h48v16h-48
		V232z"/>
	<path style="fill:#444444;" d="M336,328h80V176h-80V328z M400,312h-48v-16h48V312z M400,280h-48v-16h48V280z M352,248v-16h48v16
		H352z M352,192h48v16h-48V192z"/>
</g>
<path style="fill:#FF5023;" d="M328,146.4V160h16v-40h-40v16h11.576c-93.904,81.304-209.6,72.16-210.856,72l-1.44,16
	c1.04,0.096,6.536,0.544,15.44,0.544C195.573,224.322,269.809,196.603,328,146.4L328,146.4z"/>
<g>
	<path style="fill:#444444;" d="M128,168c-4.418,0-8-3.582-8-8h-16c0.042,10.134,6.445,19.15,16,22.528V192h16v-9.472
		c12.473-4.393,19.023-18.066,14.629-30.539c-3.38-9.596-12.455-16.009-22.629-15.989c-4.418,0-8-3.582-8-8s3.582-8,8-8s8,3.582,8,8
		h16c-0.042-10.134-6.445-19.15-16-22.528V96h-16v9.472c-12.473,4.393-19.023,18.066-14.629,30.539
		c3.38,9.596,12.455,16.009,22.629,15.989c4.418,0,8,3.582,8,8S132.418,168,128,168z"/>
	<path style="fill:#444444;" d="M480,80V32H272V0h-64v32H0v48h16v256H0v48h208v48h-56v48h176v-48h-56v-48h208v-48h-16V80H480z
		 M224,16h32v16h-32V16z M16,48h448v16H16V48z M312,448v16H168v-16H312z M224,432v-48h32v48H224z M464,368H16v-16h448V368z M448,336
		H32V80h416V336z"/>
</g>
<g>
</g>
<g>
</g>
<g>
</g>
<g>
</g>
<g>
</g>
<g>
</g>
<g>
</g>
<g>
</g>
<g>
</g>
<g>
</g>
<g>
</g>
<g>
</g>
<g>
</g>
<g>
</g>
<g>
</g>
</svg>
