<svg width="78" height="28" viewBox="0 0 78 28" fill="none" xmlns="http://www.w3.org/2000/svg">
<path d="M16.4629 17.3672H19.3633V21.4629H16.4629V27H11.3828V21.4629H0.888672L0.660156 18.2637L11.3301 1.40625H16.4629V17.3672ZM5.72266 17.3672H11.3828V8.33203L11.0488 8.91211L5.72266 17.3672ZM38.0488 16.541H27.9238V27H22.6504V1.40625H39.3145V5.67773H27.9238V12.2871H38.0488V16.541Z" fill="#19A389"/>
<path d="M16.4629 17.3672H19.3633V21.4629H16.4629V27H11.3828V21.4629H0.888672L0.660156 18.2637L11.3301 1.40625H16.4629V17.3672ZM5.72266 17.3672H11.3828V8.33203L11.0488 8.91211L5.72266 17.3672ZM38.0488 16.541H27.9238V27H22.6504V1.40625H39.3145V5.67773H27.9238V12.2871H38.0488V16.541Z" fill="#F55656"/>
<path d="M47.4004 27H42.3027V7.98047H47.4004V27ZM42.0039 3.05859C42.0039 2.29688 42.2559 1.66992 42.7598 1.17773C43.2754 0.685547 43.9727 0.439453 44.8516 0.439453C45.7188 0.439453 46.4102 0.685547 46.9258 1.17773C47.4414 1.66992 47.6992 2.29688 47.6992 3.05859C47.6992 3.83203 47.4355 4.46484 46.9082 4.95703C46.3926 5.44922 45.707 5.69531 44.8516 5.69531C43.9961 5.69531 43.3047 5.44922 42.7773 4.95703C42.2617 4.46484 42.0039 3.83203 42.0039 3.05859ZM56.2773 7.98047L56.4355 10.1777C57.7949 8.47852 59.6172 7.62891 61.9023 7.62891C63.918 7.62891 65.418 8.2207 66.4023 9.4043C67.3867 10.5879 67.8906 12.3574 67.9141 14.7129V27H62.834V14.8359C62.834 13.7578 62.5996 12.9785 62.1309 12.498C61.6621 12.0059 60.8828 11.7598 59.793 11.7598C58.3633 11.7598 57.291 12.3691 56.5762 13.5879V27H51.4961V7.98047H56.2773ZM72.0449 24.5039C72.0449 23.6953 72.3145 23.0391 72.8535 22.5352C73.4043 22.0312 74.0898 21.7793 74.9102 21.7793C75.7422 21.7793 76.4277 22.0312 76.9668 22.5352C77.5176 23.0391 77.793 23.6953 77.793 24.5039C77.793 25.3008 77.5234 25.9512 76.9844 26.4551C76.4453 26.9473 75.7539 27.1934 74.9102 27.1934C74.0781 27.1934 73.3926 26.9473 72.8535 26.4551C72.3145 25.9512 72.0449 25.3008 72.0449 24.5039Z" fill="#F55656"/>
<path d="M47.4004 27H42.3027V7.98047H47.4004V27ZM42.0039 3.05859C42.0039 2.29688 42.2559 1.66992 42.7598 1.17773C43.2754 0.685547 43.9727 0.439453 44.8516 0.439453C45.7188 0.439453 46.4102 0.685547 46.9258 1.17773C47.4414 1.66992 47.6992 2.29688 47.6992 3.05859C47.6992 3.83203 47.4355 4.46484 46.9082 4.95703C46.3926 5.44922 45.707 5.69531 44.8516 5.69531C43.9961 5.69531 43.3047 5.44922 42.7773 4.95703C42.2617 4.46484 42.0039 3.83203 42.0039 3.05859ZM56.2773 7.98047L56.4355 10.1777C57.7949 8.47852 59.6172 7.62891 61.9023 7.62891C63.918 7.62891 65.418 8.2207 66.4023 9.4043C67.3867 10.5879 67.8906 12.3574 67.9141 14.7129V27H62.834V14.8359C62.834 13.7578 62.5996 12.9785 62.1309 12.498C61.6621 12.0059 60.8828 11.7598 59.793 11.7598C58.3633 11.7598 57.291 12.3691 56.5762 13.5879V27H51.4961V7.98047H56.2773ZM72.0449 24.5039C72.0449 23.6953 72.3145 23.0391 72.8535 22.5352C73.4043 22.0312 74.0898 21.7793 74.9102 21.7793C75.7422 21.7793 76.4277 22.0312 76.9668 22.5352C77.5176 23.0391 77.793 23.6953 77.793 24.5039C77.793 25.3008 77.5234 25.9512 76.9844 26.4551C76.4453 26.9473 75.7539 27.1934 74.9102 27.1934C74.0781 27.1934 73.3926 26.9473 72.8535 26.4551C72.3145 25.9512 72.0449 25.3008 72.0449 24.5039Z" fill="#19A389"/>
</svg>
